<svg xmlns="http://www.w3.org/2000/svg" viewBox="0 0 87.83 87.83"><defs><style>.cls-1{fill:#fff;}.cls-2{fill:none;stroke:#ff3d42;stroke-miterlimit:10;}</style></defs><g id="Capa_2" data-name="Capa 2"><g id="Capa_1-2" data-name="Capa 1"><circle class="cls-1" cx="43.91" cy="43.91" r="43.91"/><path class="cls-2" d="M78.79,63.07c-2,4-4,8-8,11-2,1-3,2-5,3-11,5-24,2-35-3a21.86,21.86,0,0,0-5-3c-4-3-5-8-8-12s-1-8-1-12c-1-15,9-31,26-33,12-1,26,2,34,13s6,25,2,36Z"/><path class="cls-2" d="M62.79,21.07c1,2,3,2,5,3,13,9,12,26,6,39-5,9-16,13-26,12-10-2-19-5-25-14-5-10-4-21,1-30a21.86,21.86,0,0,0,3-5c9-10,24-9,36-5Z"/><path class="cls-2" d="M59.79,24.07c1,2,3,2,5,3,11,8,11,24,4,35-8,12-23,9-34,5-13-6-13-23-8-34,6-12,21-13,33-9Z"/><path class="cls-2" d="M56.79,27.07c1,2,3,2,5,3,6,4,8,12,7,19-1,5-3,11-8,14-10,5-23,4-29-4-8-11-5-29,9-33,5-1,11,0,16,1Z"/><path class="cls-2" d="M53.79,31.07c11,3,13,18,7,26-6,6-15,5-22,3-9-3-8-15-6-23,3-8,13-9,21-6Z"/><path class="cls-2" d="M50.79,34.07c5,0,7,4,9,8,1,4,1,10-3,13-5,3-11,2-17,2-5-5-6-14-2-20,3-3,7-5,13-3Z"/><path class="cls-2" d="M47.79,37.07c4-1,7,2,8,6,0,2,0,5-1,7-2,3-6,3-9,3-1,0-1,2-2,2-5-1-4-7-4-11-1-3,2-8,8-7Z"/><path class="cls-2" d="M44.79,40.07c3-3,5,1,7,3a3.67,3.67,0,0,1,1,3c0,2-2,3-5,4a3.67,3.67,0,0,0-1,3c-2-3-8-7-4-12,1,0,1-1,2-1Z"/><path class="cls-2" d="M50.79,46.07c0,1-1,2-1,3s3,0,2,1c-3,2-8,0-10-4-1-2,0-4,2-6,2-1,5-1,7,3v3Z"/></g></g></svg>