<svg xmlns="http://www.w3.org/2000/svg" viewBox="0 0 100.1 91.68"><defs><style>.cls-1{fill:#fff;}.cls-2{fill:none;stroke:#ff3d42;stroke-miterlimit:10;stroke-width:2px;}</style></defs><g id="Capa_2" data-name="Capa 2"><g id="Capa_1-2" data-name="Capa 1"><circle class="cls-1" cx="54.26" cy="43.91" r="43.91"/><polygon class="cls-2" points="98.17 43.95 85.74 54.5 95.04 68.51 78.27 67.35 74.9 83.5 63.33 72.57 54.38 83.89 41.25 75.3 28.45 88.22 33.44 70.71 19.86 64.15 20.82 49.05 3.14 45.32 19.3 37.78 15.4 22.13 30.94 20.07 30.09 3.17 43.2 13.79 53.73 2.43 63.93 13.98 77.26 3.68 75.24 20.41 90.62 23.66 84.45 38.67 98.17 43.95"/><polygon class="cls-2" points="47.29 4.25 53.65 22.58 71.45 22.94 67.83 38.86 83.69 43.96 71.63 53.58 81.14 65.93 63.19 67.25 57.38 85.5 53.13 66.65 36.68 65.47 32.54 49.48 13.24 48.8 29.85 40.5 27 24.08 44.13 21.88 47.29 4.25"/><polygon class="cls-2" points="40.22 15.96 49.44 29.95 64.59 23.2 60.72 39.2 75.41 42.91 69.21 54.92 82.78 61.42 68.23 55.1 60.83 68.15 56.12 54.46 44.35 61.95 42.95 47.57 28.21 51.03 36.48 39 23.84 31.24 39.94 30.32 40.22 15.96"/><polygon class="cls-2" points="33.49 32.76 50.12 43.66 67.12 33.45 59.27 47.05 68.27 59.85 55.42 46.97 40.09 54.97 44.55 41.19 33.49 32.76"/><polygon class="cls-2" points="72.03 42.93 57.73 40.74 53.93 54.35 40.73 41.44 20.82 45.58 41.2 47.65 52.95 33.28 58.65 46.55 72.03 42.93"/></g></g></svg>