<svg xmlns="http://www.w3.org/2000/svg" viewBox="0 0 91.9 94.94"><defs><style>.cls-1{fill:#b552f3;stroke:#b552f3;stroke-miterlimit:10;stroke-width:3px;}.cls-2{fill:none;}.cls-3{fill:#fff;}</style></defs><g id="Capa_2" data-name="Capa 2"><g id="Capa_1-2" data-name="Capa 1"><path class="cls-1" d="M89.76,26.7c0,26.92,8.58,38.65-43.45,38.77-10,0-17.22.36-24.09-.12C18.88,65.12,4.29,87.58,4.29,87.58s5.26-26.46,3.5-27.7C-.85,53.8,1.93,62.36,1.93,26.7,1.93,2.45,2.68,1,47.36,1.58,99,2.21,89.76,2.45,89.76,26.7Z"/><path class="cls-2" d="M77.73,67.27,77.67,66l-.5.52C77.36,66.74,77.54,67,77.73,67.27Z"/><path class="cls-3" d="M82.56,46a68.51,68.51,0,0,1,4.28-12.6c.65.93,1.27,1.9,1.86,2.88.68-3.08-2.1-11.21-7.43-18.48q-.58,2.73-1.18,5.46A32.76,32.76,0,0,1,76,14.1a91.58,91.58,0,0,1-3.52,19.19,87,87,0,0,1-2.1-17.57L62,35.74a135.66,135.66,0,0,1,1.69-22.91,223.63,223.63,0,0,0-9.82,28.9A149.81,149.81,0,0,1,49,13.91Q45.43,25.06,41.87,36.2C41,30,37.38,24.66,37.13,21.13a36.67,36.67,0,0,1-2,9.37,103.07,103.07,0,0,1-1.59-11.45,19.81,19.81,0,0,1-3,7L29.93,18a62.25,62.25,0,0,1-5.7,20.15,160.5,160.5,0,0,1-3-25.25Q15.43,25.16,9.62,37.45A93.72,93.72,0,0,1,7.08,23.06c-3.29,6.15-4,5.13-4,12.6,0,6.76.35,4.21,3.08,9.93,2.27-5.18,4.73-10.19,8.42-14.13q2.07,11,4.15,22.08c.53,2.85,1.1,5.79,2.56,8.2q2.54-11.57,5.08-23.13Q28,44.68,29.63,50.78A95.15,95.15,0,0,0,33.1,61.91a84.68,84.68,0,0,1,4.25-17.62c3.41,3.77,3.86,10.11,7.42,13.7A73.69,73.69,0,0,1,46,45.23a39.62,39.62,0,0,1,4.39,6.18A14.64,14.64,0,0,0,51.25,47c1.22,2.31,2.45,4.62,3.67,6.94a94,94,0,0,1,1.17-10l7.68,14.94q.43-6.52.89-13.06c2.81,3.92,4.76,8.52,6.68,13.08a72.74,72.74,0,0,0,.51-10.43,56.63,56.63,0,0,0,5.32,9.09l.5-.52q-.45-8.88-.88-17.74Q79.67,42.59,82.56,46Z"/></g></g></svg>