<svg xmlns="http://www.w3.org/2000/svg" viewBox="0 0 120 120"><defs><style>.cls-1{fill:#b552f3;}.cls-2{fill:#ff3d42;stroke:#ff3d42;stroke-miterlimit:10;stroke-width:2.7px;}.cls-3{fill:#fff;}.cls-4{fill:none;}</style></defs><g id="Capa_2" data-name="Capa 2"><g id="Capa_1-2" data-name="Capa 1"><path class="cls-1" d="M99.53,45.78c0,21.83,7.73,34.79-39.1,34.89-9,0-15.5.33-21.67-.1-3-.21-16.14,20-16.14,20s4.73-23.81,3.15-24.93c-7.78-5.47-5.28-17-5.28-29.86,0-21.82.68-23.09,40.89-22.6C107.89,23.74,99.53,24,99.53,45.78Z"/><path class="cls-2" d="M99.53,45.78c0,21.83,7.73,34.79-39.1,34.89-9,0,.64.48-5.53,0-3-.22-32.28,19.85-32.28,19.85s4.73-23.81,3.15-24.93c-7.78-5.47-5.28-17-5.28-29.86,0-21.82.68-23.09,40.89-22.6C107.89,23.74,99.53,24,99.53,45.78Z"/><path class="cls-3" d="M91.66,53.39l-8.46-11-3.82,8.52L72.45,37.44,67.79,56.52,55.87,41.92,52.51,52,43.7,40.79l-4.59,10.5-10-10.24s-7.07,8-5.7,12L33.89,72.6l4.4-11.25,5,6,5-9.45,5.67,12.05,9.94-9.84L70.1,75.51l8.61-17.9,5.81,14.48L90.65,63l3,3.92c1.87-4.69.6-3.77,3.59-14.08.18-.61-4.63-8.49-4.63-8.49Z"/><rect class="cls-4" width="120" height="120"/></g></g></svg>