<svg xmlns="http://www.w3.org/2000/svg" viewBox="0 0 87.82 87.83"><defs><style>.cls-1{fill:#b552f3;}</style></defs><g id="Capa_2" data-name="Capa 2"><g id="Capa_1-2" data-name="Capa 1"><path class="cls-1" d="M61.22,61.52c.05.53.08,1.07.08,1.61C61.3,62.59,61.22,61.52,61.22,61.52Z"/><path class="cls-1" d="M76.85,40.61l-25.29-8s-5.57,1.54-9.15,3a50.22,50.22,0,0,1,9.15-3C57,31.39,69,33.46,69,33.46s11.55-1.8,16.59-3.35A44,44,0,0,0,67.16,6.68C63.41,10.6,59,14.08,55.1,17.89a52.2,52.2,0,0,0-3.93,4.24H56.3a39.08,39.08,0,0,0-7,2.92l-.4.21-2.74,1.46c.57-1.52,1.16-3.08,1.86-4.59H45.3c1.2-1.2,2.41-2.4,3.64-3.57a65.2,65.2,0,0,1,6.31-5.39A71.71,71.71,0,0,0,55.5,1.55,43.94,43.94,0,0,0,10.21,15.77c7.56,2.28,15.16,4.41,22.28,8a49.88,49.88,0,0,0,3.59,15.82c6.58,1.33,13.25,4.18,20.54,5.29C57.84,50.62,70,68.9,70,68.9L58.06,62l3.16-.51-8.38-12S36.7,49.15,29.6,46.43c.61,1.88,1.7,5.7,1.7,5.7v2c-2.75-3.44-5-7.34-7.48-11.07-1-.85,1.71-11.54,1.71-11.54L9.19,27.21l-8.51,9S0,41.29,0,43.91A43.6,43.6,0,0,0,6.41,66.75c1.95-1.25,5.89-3.68,5.89-3.68l1.47-6.63L8.44,42.37l2.24.2a9.09,9.09,0,0,0,1.62-2.44c-.13.75-.28,2.27-.28,2.27L15.3,61.12s1.84-1.3,2.74-2h2.4l0,.09c-4.12,3.5-8.19,7-11.1,11.77A44.12,44.12,0,0,0,25.79,83.9c1.94.88,6,2.23,6,2.23s2.38-4.3,4.75-8.56C35.86,76.32,31.84,69,30,65.33c-.26-.49-.46-.91-.63-1.25l0,0,0,0c-.12-.27-.23-.49-.28-.63-.44-.37,0-.08.54.37a38.39,38.39,0,0,1,4.23-3.77,11.24,11.24,0,0,1,2.47-3.92,11.24,11.24,0,0,0-2.47,3.92,12.58,12.58,0,0,1,3.47-1.92,12.58,12.58,0,0,0-3.47,1.92,51.15,51.15,0,0,1-2.13,5.41c1.1.88,2.15,1.77,3.18,2.64s2.33,2,3.48,3c.69-1.21,5.94-11.92,5.94-11.92a15,15,0,0,0-.56,5.42A73.12,73.12,0,0,1,56.87,60.4c.14-.09.28-.19.43-.27-.15.08-.29.18-.43.27.47-.1.94-.19,1.43-.27-.49.08-1,.17-1.43.27-4.47,2.8-8.22,7.07-14.18,7.66-1.11,1.33-2.6,3.28-2.72,4.3-.19,1.48-.62,4.43-.62,4.43a91.76,91.76,0,0,0-1.18,10.65,43.45,43.45,0,0,0,5.74.39A44,44,0,0,0,87.82,44.15C84.23,42.86,76.85,40.61,76.85,40.61Zm-58.5,10,.49.32Zm1.51,1c.27.19.52.4.78.59C20.38,52,20.13,51.78,19.86,51.59ZM21.3,52.7a15.26,15.26,0,0,1,1.31,1.21A15.26,15.26,0,0,0,21.3,52.7ZM38.65,64.94,36,63.6a24.26,24.26,0,0,0,6.3-2.39Z"/></g></g></svg>