<svg xmlns="http://www.w3.org/2000/svg" viewBox="0 0 121.2 123.86"><defs><style>.cls-1{fill:none;}.cls-2{fill:#fff;}.cls-3{fill:#ff3d42;}</style></defs><g id="Capa_2" data-name="Capa 2"><g id="Capa_1-2" data-name="Capa 1"><rect class="cls-1" x="1.2" width="120" height="120"/><circle class="cls-2" cx="61.2" cy="67.85" r="43.91"/><path class="cls-3" d="M78.51,85.46c0,.53.07,1.06.07,1.61C78.58,86.52,78.51,85.46,78.51,85.46Z"/><path class="cls-3" d="M94.14,64.55l-25.29-8s-5.58,1.53-9.16,3a51.31,51.31,0,0,1,9.16-3c5.43-1.25,17.45.82,17.45.82s11.54-1.8,16.59-3.35A44,44,0,0,0,84.45,30.62C80.7,34.54,76.3,38,72.39,41.83a52.33,52.33,0,0,0-3.94,4.24h5.13a38.28,38.28,0,0,0-7,2.92l-.4.21c-.92.47-1.83,1-2.74,1.46.57-1.53,1.15-3.08,1.85-4.59H62.58c1.21-1.21,2.42-2.4,3.65-3.57a62.79,62.79,0,0,1,6.31-5.4,72.74,72.74,0,0,0,.25-11.61A44,44,0,0,0,27.5,39.7c7.55,2.29,15.16,4.41,22.28,8a49.67,49.67,0,0,0,3.59,15.83C60,64.85,66.61,67.71,73.9,68.82c1.23,5.74,13.34,24,13.34,24L75.35,86l3.16-.51-8.38-12S54,73.09,46.89,70.36c.6,1.89,1.69,5.71,1.69,5.71v2c-2.74-3.44-5-7.34-7.47-11.07-1-.85,1.71-11.54,1.71-11.54L26.47,51.15l-8.51,9s-.67,5.07-.67,7.69a43.69,43.69,0,0,0,6.4,22.84c2-1.25,5.89-3.68,5.89-3.68l1.48-6.63L25.73,66.31l2.23.2a8.86,8.86,0,0,0,1.62-2.44c-.12.75-.28,2.26-.28,2.26l3.28,18.72s1.85-1.29,2.75-2h2.39l.06.08c-4.12,3.51-8.2,7.06-11.1,11.78a44,44,0,0,0,16.39,12.91c2,.88,6,2.23,6,2.23s2.38-4.3,4.75-8.56c-.72-1.26-4.74-8.58-6.62-12.25-.25-.49-.46-.91-.62-1.24l-.05,0,.05,0c-.13-.27-.23-.49-.29-.63-.43-.37,0-.08.55.37A39.17,39.17,0,0,1,51.11,84a11.39,11.39,0,0,1,2.47-3.92A11.39,11.39,0,0,0,51.11,84a12.73,12.73,0,0,1,3.47-1.92A12.73,12.73,0,0,0,51.11,84,48.11,48.11,0,0,1,49,89.39c1.09.89,2.15,1.78,3.18,2.65S54.5,94,55.65,95c.68-1.21,5.93-11.92,5.93-11.92A15.24,15.24,0,0,0,61,88.49a73.23,73.23,0,0,1,13.14-4.16l.42-.26-.42.26,1.42-.26-1.42.26C69.69,87.14,65.94,91.41,60,92c-1.11,1.34-2.59,3.29-2.72,4.31-.18,1.48-.62,4.43-.62,4.43a96.34,96.34,0,0,0-1.18,10.65,43.72,43.72,0,0,0,5.75.39,44.38,44.38,0,0,0,5.44-.35,43.91,43.91,0,0,0,38.47-43.34C101.51,66.8,94.14,64.55,94.14,64.55Zm-58.5,10,.48.32Zm1.51,1c.27.19.52.39.77.59C37.67,75.92,37.42,75.72,37.15,75.53Zm1.44,1.11c.46.39.9.79,1.31,1.21C39.49,77.43,39.05,77,38.59,76.64ZM55.93,88.87l-2.68-1.33a24.47,24.47,0,0,0,6.31-2.4Z"/><rect class="cls-1" y="7.6" width="116.27" height="116.27"/></g></g></svg>