<svg xmlns="http://www.w3.org/2000/svg" viewBox="0 0 87.83 87.83"><defs><style>.cls-1{fill:#fff;}.cls-2{fill:#b552f3;}</style></defs><g id="Capa_2" data-name="Capa 2"><g id="Capa_1-2" data-name="Capa 1"><circle class="cls-1" cx="43.91" cy="43.91" r="43.91"/><path class="cls-2" d="M78.62,49.41S76.76,66.73,59.78,66.73,29,49.41,29,49.41s11.77-6.12,17.61-8C50.48,40.1,55.07,47.3,65,47.3c11.7.23,3.53-5,7.1-2.68C78.45,48.69,78.62,49.41,78.62,49.41Z"/><path class="cls-1" d="M62.29,50.1a21.87,21.87,0,0,1-7.8-3.91A15.46,15.46,0,0,0,54,49.34a9.71,9.71,0,0,0,19.37,1.35,17.18,17.18,0,0,0-.15-3.14C70.47,50.27,66.38,51.13,62.29,50.1Z"/><path class="cls-2" d="M66.25,51.21a13.52,13.52,0,0,1-4-.41l-1.12-.38c0,.18,0,1,0,1.23a3.89,3.89,0,1,0,7.77,0c0-1.46-.07-2.21,0-.88a12,12,0,0,1-2.64.44"/><rect class="cls-2" x="-0.26" y="33.11" width="57.91" height="5.05" rx="2.52" transform="translate(-17.05 34.71) rotate(-50)"/><path class="cls-2" d="M28.94,53.72,19.76,46a.54.54,0,0,1-.07.13,9.3,9.3,0,0,1-3.87,3.15l9.88,8.29a2.52,2.52,0,0,0,3.24-3.86Z"/></g></g></svg>