<svg xmlns="http://www.w3.org/2000/svg" viewBox="0 0 70.19 69.71"><defs><style>.cls-1{fill:#fff;}.cls-2{fill:#ff3d42;}</style></defs><g id="Capa_2" data-name="Capa 2"><g id="Capa_1-2" data-name="Capa 1"><circle class="cls-1" cx="35.48" cy="36.78" r="32.94"/><path class="cls-2" d="M70.19,42.27S68.33,59.59,51.35,59.59,20.61,42.27,20.61,42.27s11.76-6.12,17.61-8c3.83-1.26,8.41,5.93,18.36,5.93,11.7.23,3.54-5,7.11-2.68C70,41.55,70.19,42.27,70.19,42.27Z"/><path class="cls-1" d="M53.86,43a21.85,21.85,0,0,1-7.81-3.92,16.3,16.3,0,0,0-.5,3.15,9.7,9.7,0,1,0,19.36,1.35,15.47,15.47,0,0,0-.15-3.13C62,43.13,58,44,53.86,43Z"/><path class="cls-2" d="M57.81,44.07a13.79,13.79,0,0,1-4-.4l-1.12-.38c0,.17,0,1.05,0,1.23a3.89,3.89,0,0,0,7.77,0c0-1.47-.07-2.22,0-.89a11.65,11.65,0,0,1-2.65.44"/><rect class="cls-2" x="-14.16" y="27.25" width="73" height="6.37" rx="3.18" transform="translate(-15.4 31.21) rotate(-54.89)"/><path class="cls-2" d="M24.6,53.11,12.24,44.42l-.08.18A11.81,11.81,0,0,1,7.64,49l13.3,9.35a3.18,3.18,0,0,0,3.66-5.21Z"/></g></g></svg>